<svg id="Layer_1" data-name="Layer 1" xmlns="http://www.w3.org/2000/svg" xmlns:xlink="http://www.w3.org/1999/xlink" viewBox="0 0 992.98 982.16"><defs><style>.cls-1{fill:#72bbc5;}.cls-2{clip-path:url(#clip-path);}.cls-3{fill:#003662;}.cls-4{fill:#dca678;}.cls-5{fill:#271511;}.cls-6{fill:#f8ba8c;}.cls-7{fill:#ab0f0a;}</style><clipPath id="clip-path" transform="translate(-468.32 -53.21)"><path class="cls-1" d="M1461.3,538.3c0,267.91-222.28,485.09-496.5,485.09S468.32,806.21,468.32,538.3,690.6,53.21,964.8,53.21,1461.3,270.39,1461.3,538.3Z"/></clipPath></defs><title>avatar2</title><path class="cls-1" d="M1461.3,538.3c0,267.91-222.28,485.09-496.5,485.09S468.32,806.21,468.32,538.3,690.6,53.21,964.8,53.21,1461.3,270.39,1461.3,538.3Z" transform="translate(-468.32 -53.21)"/><g class="cls-2"><path class="cls-3" d="M1228.87,821.9c-31.2-38-278.15-121.46-278.15-121.46S708.94,792.74,672.54,821.9s-50,213.47-50,213.47h649.23S1260.06,859.91,1228.87,821.9Z" transform="translate(-468.32 -53.21)"/><path class="cls-4" d="M1027.26,745s-5.12,24.23-34.48,37c-10.55,4.62-24.27,63.43-42,63.43-18.74,0-33-59.17-43.78-64.23C879.22,768.22,874.3,745,874.3,745s18.63-36.2,0-78.7,175.77-51.13,153,0S1027.26,745,1027.26,745Z" transform="translate(-468.32 -53.21)"/><path class="cls-5" d="M1125.3,575.76c14.24-62.43,31.43-154.36,31.43-154.36,58.9-128.72-2.18-322.75-116.4-263.11C899,32.16,675.39,208.56,751,419.65c0,0,9.15,96.61,23.85,158.15C791.42,647,913.46,698.42,950.72,700.44S1110.24,641.91,1125.3,575.76Z" transform="translate(-468.32 -53.21)"/><path class="cls-6" d="M1166.92,458.24c0,33.72-24.48,80.06-41,80.06s-29.87-27.35-29.87-61.07S1113,426.11,1126,416.18C1141.92,404,1166.92,416.18,1166.92,458.24Z" transform="translate(-468.32 -53.21)"/><path class="cls-6" d="M739.47,458.24c0,33.72,24.47,80.06,40.94,80.06S810.3,511,810.3,477.23s-16.89-51.12-29.89-61.05C764.46,404,739.47,416.18,739.47,458.24Z" transform="translate(-468.32 -53.21)"/><path class="cls-6" d="M953.88,190.91c-116,0-167.21,79.38-167.21,197.77V536.93c0,103.13,121.94,191.32,160.47,191.32s173.94-103.12,173.94-200.81V388.68C1121.08,270.29,1069.82,190.91,953.88,190.91Z" transform="translate(-468.32 -53.21)"/><path class="cls-5" d="M1121.08,473.17l10.44-86.39c0-118.4-61.7-206.61-177.64-206.61S780.71,268.38,780.71,386.78l6,105.38s13.74-22.63,12.52-56c-2.78-76,51.66-82.79,115.08-94.62,100-18.66,128.1-77.24,128.1-77.24s32.77,10.84,53.71,58.58c13.54,30.87,16.7,78.15,15.65,97.49S1121.08,473.17,1121.08,473.17Z" transform="translate(-468.32 -53.21)"/><path class="cls-7" d="M855.44,386.78c-44.87,0-72.92,16.29-72.92,33.59,0,27.47,10.27,72.08,54.81,77.34,43.1,5.09,99.35-10.18,99.35-80.39C936.68,401,900.31,386.78,855.44,386.78Zm-14.9,103c-38.14-4.5-46.91-42.69-46.91-66.2,0-14.81,24-28.76,62.41-28.76S925.6,407,925.6,421C925.6,481.09,877.46,494.15,840.54,489.79Z" transform="translate(-468.32 -53.21)"/><path class="cls-7" d="M964.8,435.13s-2.08-10.7-16.91-10.7c-10.14,0-12.72,11.73-12.72,11.73l-5.37-30.92s7.4,6.23,12.35,6.23c2.48,0,8.49,1.2,13.57,0s9.08-6.23,9.08-6.23Z" transform="translate(-468.32 -53.21)"/><path class="cls-7" d="M788.78,451.91s-16.15-1.13-16.15-9.21V418.34c0-12.72,16.15-8.67,16.15-8.67Z" transform="translate(-468.32 -53.21)"/><path class="cls-7" d="M957.58,417.32c0,70.21,56.24,85.48,99.35,80.39,44.55-5.26,54.8-49.87,54.8-77.34,0-17.3-28-33.59-72.91-33.59S957.58,401,957.58,417.32Zm11.1,3.64c0-13.93,31.13-26.13,69.54-26.13s62.41,13.95,62.41,28.76c0,23.51-8.77,61.7-46.91,66.2C1016.83,494.15,968.68,481.09,968.68,421Z" transform="translate(-468.32 -53.21)"/><path class="cls-7" d="M1105.48,451.91s16.14-1.13,16.14-9.21V418.34c0-12.72-16.14-8.67-16.14-8.67Z" transform="translate(-468.32 -53.21)"/></g></svg>